<?xml version="1.0" encoding="utf-8"?>
<!-- Generator: Adobe Illustrator 27.5.0, SVG Export Plug-In . SVG Version: 6.00 Build 0)  -->
<svg version="1.1" xmlns="http://www.w3.org/2000/svg" xmlns:xlink="http://www.w3.org/1999/xlink" x="0px" y="0px"
	 viewBox="0 0 2000 2000" style="enable-background:new 0 0 2000 2000;" xml:space="preserve">
<g id="BACKGROUND">
	<g>
		<rect style="fill:#FFFFFF;" width="2000" height="2000"/>
		<ellipse style="fill:#B8EBF1;" cx="1000" cy="895.73" rx="797.436" ry="780.506"/>
		<ellipse style="fill:#EAEAEA;" cx="995.127" cy="1813.581" rx="730.748" ry="61.596"/>
	</g>
</g>
<g id="OBJECTS">
	<g>
		<path style="fill:#A71E1E;" d="M636.51,1487.419c0,0-231.149,163.398-163.398,211.222
			c67.75,47.824,171.369-107.604,171.369-107.604s-107.604,167.383-39.853,175.354c67.75,7.971,107.604-151.442,107.604-151.442
			s-39.853,151.442,15.941,143.472s83.692-207.237,83.692-207.237L636.51,1487.419z"/>
		<path style="fill:#C62221;" d="M1577.046,1088.887c0,0,183.325,219.193,87.677,330.782s-195.281,103.618-318.826,39.853
			c-121.136-62.522-191.295-207.237-163.398-231.149c27.897-23.912,99.633,43.839,99.633,43.839s-51.809-67.751-19.927-95.648
			c31.883-27.897,103.618,27.897,103.618,27.897s-51.809-75.721-15.941-95.648c35.868-19.927,95.648,47.824,95.648,47.824
			S1581.031,1160.623,1577.046,1088.887z"/>
		<path style="fill:#210400;" d="M933.355,1579.082l2.944,18.844l-6.93,132.598c0,0,111.589-19.927,91.662,27.897
			c-19.927,47.824-83.692,11.956-83.692,11.956s-63.765,91.662-107.604,59.78c-43.839-31.882,55.794-67.75,55.794-67.75
			s-139.486,19.927-131.516-11.956c7.971-31.882,151.442-19.927,151.442-19.927l-19.927-147.457"/>
		<path style="fill:#210400;" d="M1126.705,1579.082l-2.944,18.844l6.93,132.598c0,0-111.589-19.927-91.662,27.897
			c19.927,47.824,83.692,11.956,83.692,11.956s63.765,91.662,107.604,59.78c43.839-31.882-55.794-67.75-55.794-67.75
			s139.486,19.927,131.516-11.956c-7.971-31.882-151.442-19.927-151.442-19.927l19.927-147.457"/>
		<path style="fill:#A42121;" d="M811.865,1543.214c0,0,51.809,139.486,111.589,131.516c59.78-7.971,63.765-91.662,63.765-91.662
			L811.865,1543.214z"/>
		<path style="fill:#A42121;" d="M1258.22,1543.214c0,0-51.809,139.486-111.589,131.516c-59.78-7.971-63.765-91.662-63.765-91.662
			L1258.22,1543.214z"/>
		<path style="fill:#F43B3B;" d="M1206.411,518.987c0,0-23.912-123.545-187.31-215.207s-338.752-59.78-338.752-59.78
			s143.472,55.795,151.442,95.648c3.985-7.971-159.413-27.897-207.237-3.985c39.853-7.971,155.427,99.633,155.427,99.633
			s-103.618-31.883-159.413,3.985c59.78,3.985,123.545,91.662,123.545,91.662S365.509,766.076,313.7,1072.946
			c-51.809,306.87,418.459,530.048,677.504,557.945s725.328-306.87,721.343-565.916S1206.411,518.987,1206.411,518.987z"/>
		<path style="fill:#E52E2E;" d="M1712.547,1064.975c-1.291-83.89-54.834-170.703-126.64-249.751
			c8.124,97.272-5.694,212.04-56.684,345.399c-207.237,542.004-709.387,382.591-916.624,247.09
			c-133.684-87.408-215.953-314.114-257.514-464.035c-19.291,41.224-33.823,84.48-41.385,129.268
			c-51.809,306.87,418.459,530.048,677.504,557.945C1250.25,1658.788,1716.532,1324.021,1712.547,1064.975z"/>
		<path style="fill:#2B3A51;" d="M1246.265,786.003c0,0-219.686-178.134-394.547-19.927
			c-167.383,151.442-51.809,406.503,139.486,518.092c191.295,111.589,346.723,51.809,474.253-35.868
			c127.53-87.677,247.09-326.796,111.589-458.312S1246.265,786.003,1246.265,786.003z"/>
		<g>
			
				<ellipse transform="matrix(0.9158 -0.4015 0.4015 0.9158 -293.6006 504.9071)" style="fill:#FF665A;" cx="1057.703" cy="952.865" rx="182.804" ry="179.29"/>
			
				<ellipse transform="matrix(0.9158 -0.4015 0.4015 0.9158 -293.6033 504.9153)" style="fill:#FFFFFF;" cx="1057.703" cy="952.865" rx="166.229" ry="163.033"/>
			<path style="fill:#EAEAEA;" d="M1209.942,886.117c-9.844-22.452-24.24-41.522-41.667-56.656
				c10.339,11.916,19.073,25.542,25.726,40.715c36.155,82.463-2.694,179.196-86.774,216.061
				c-61.187,26.827-129.458,14.545-176.037-25.907c45.851,52.845,123.369,71.93,191.978,41.849
				C1207.247,1065.313,1246.097,968.58,1209.942,886.117z"/>
			
				<ellipse transform="matrix(0.9158 -0.4015 0.4015 0.9158 -292.0729 500.6251)" style="fill:#C66610;" cx="1048.287" cy="947.101" rx="115.039" ry="112.827"/>
			<path style="fill:#E88B3F;" d="M972.919,918.624c-15.439,6.769-28.647,16.475-39.294,28.12
				c-0.285,15.574,2.666,31.408,9.305,46.55c25.021,57.068,92.475,82.65,150.662,57.139c15.439-6.769,28.647-16.475,39.294-28.12
				c0.285-15.574-2.666-31.409-9.305-46.551C1098.56,918.694,1031.106,893.112,972.919,918.624z"/>
			
				<ellipse transform="matrix(0.9158 -0.4015 0.4015 0.9158 -292.0803 500.6473)" style="fill:#210400;" cx="1048.287" cy="947.101" rx="72.308" ry="70.918"/>
			
				<ellipse transform="matrix(0.9158 -0.4015 0.4015 0.9158 -271.2297 485.7633)" style="fill:#FFE7D6;" cx="1023.219" cy="889.926" rx="21.217" ry="37.16"/>
		</g>
		<g>
			
				<ellipse transform="matrix(0.9158 -0.4015 0.4015 0.9158 -263.0775 650.5254)" style="fill:#FF665A;" cx="1420.367" cy="952.865" rx="182.804" ry="179.29"/>
			
				<ellipse transform="matrix(0.9158 -0.4015 0.4015 0.9158 -263.0806 650.5427)" style="fill:#FFFFFF;" cx="1420.367" cy="952.865" rx="166.229" ry="163.033"/>
			<path style="fill:#EAEAEA;" d="M1572.606,886.117c-9.844-22.452-24.24-41.522-41.667-56.656
				c10.339,11.916,19.073,25.542,25.726,40.715c36.155,82.463-2.695,179.196-86.774,216.061
				c-61.187,26.827-129.458,14.545-176.037-25.907c45.851,52.845,123.369,71.93,191.978,41.849
				C1569.912,1065.313,1608.762,968.58,1572.606,886.117z"/>
			
				<ellipse transform="matrix(0.9158 -0.4015 0.4015 0.9158 -261.5553 646.2605)" style="fill:#C66610;" cx="1410.952" cy="947.101" rx="115.039" ry="112.827"/>
			<path style="fill:#E88B3F;" d="M1335.584,918.624c-15.439,6.769-28.647,16.475-39.294,28.12
				c-0.285,15.574,2.666,31.408,9.305,46.55c25.021,57.068,92.475,82.65,150.662,57.139c15.439-6.769,28.647-16.475,39.294-28.12
				c0.285-15.574-2.666-31.409-9.305-46.551C1461.224,918.694,1393.771,893.112,1335.584,918.624z"/>
			
				<ellipse transform="matrix(0.9158 -0.4015 0.4015 0.9158 -261.5542 646.2544)" style="fill:#210400;" cx="1410.952" cy="947.101" rx="72.308" ry="70.918"/>
			
				<ellipse transform="matrix(0.9158 -0.4015 0.4015 0.9158 -240.7084 631.392)" style="fill:#FFE7D6;" cx="1385.884" cy="889.926" rx="21.218" ry="37.16"/>
		</g>
		<path style="fill:#E88421;" d="M1182.499,1092.873c0,0-35.868,71.736,27.897,107.604c63.765,35.868,119.56-83.692,179.339-87.677
			C1341.912,1080.917,1182.499,1092.873,1182.499,1092.873z"/>
		<path style="fill:#FFBF40;" d="M1238.294,933.46c0,0,11.956,75.721-55.795,159.413c67.75,3.985,191.295,19.927,243.105,39.853
			C1417.633,949.401,1238.294,933.46,1238.294,933.46z"/>
		<path style="fill:#FB6B63;" d="M1572.18,1346.828c-113.168-7.475-321.424-5.029-509.24,84.797
			c-121.848,58.275-178.741,122.026-188.38,177.041c41.592,10.888,81.108,18.399,116.644,22.225
			C1159.308,1648.994,1414.681,1514.372,1572.18,1346.828z"/>
		<path style="fill:#210400;" d="M1035.043,634.561c0,0-47.824-31.883-163.398,43.839
			c15.941-83.692,155.427-123.545,155.427-123.545L1035.043,634.561z"/>
		<path style="fill:#210400;" d="M1337.927,546.884l3.985,75.721c0,0,115.574-11.956,175.354,11.956
			C1457.486,554.854,1337.927,546.884,1337.927,546.884z"/>
		<path style="fill:#C62221;" d="M640.496,1088.887c0,0,183.325,219.193,87.677,330.782s-195.281,103.618-318.826,39.853
			C288.211,1397,218.052,1252.286,245.949,1228.374c27.897-23.912,99.633,43.839,99.633,43.839s-51.809-67.751-19.927-95.648
			c31.883-27.897,103.618,27.897,103.618,27.897s-51.809-75.721-15.941-95.648c35.868-19.927,95.648,47.824,95.648,47.824
			S644.481,1160.623,640.496,1088.887z"/>
		<path style="fill:#E52E2E;" d="M680.349,243.999c0,0,442.371,107.604,526.062,274.987
			C1114.749,168.278,680.349,243.999,680.349,243.999z"/>
		<path style="fill:#E52E2E;" d="M624.555,335.662c0,0,286.943,39.853,414.473,155.427
			C951.351,295.809,708.246,315.735,624.555,335.662z"/>
		<path style="fill:#E52E2E;" d="M632.525,431.31c0,0,195.281,47.824,259.046,115.574
			C887.586,427.324,696.29,415.368,632.525,431.31z"/>
		<path style="fill:#C66610;" d="M1345.546,1063.173c0,0-88.473-50.556-101.112-18.958
			C1231.795,1075.812,1345.546,1063.173,1345.546,1063.173z"/>
		<path style="fill:#FB6C64;" d="M620.569,754.12c-47.489-42.74-215.207,71.736-123.545,171.369S660.422,789.988,620.569,754.12z"/>
		<path style="fill:#FB6C64;" d="M720.202,738.179c-49.963-14.275-87.677,87.677-27.897,99.633
			C752.085,849.768,775.997,754.12,720.202,738.179z"/>
		<path style="fill:#FB6C64;" d="M859.688,1331.992c-59.78,23.912-59.78,135.501,43.839,119.56s71.736-139.486-27.897-127.53"/>
		<g>
			<path style="fill:#C62221;" d="M621.302,1542.824c0,0-153.798,103.578-122.41,122.411S621.302,1542.824,621.302,1542.824z"/>
			<path style="fill:#C62221;" d="M684.077,1580.489c0,0-103.578,128.688-62.775,138.104
				C662.106,1728.01,684.077,1580.489,684.077,1580.489z"/>
			<path style="fill:#C62221;" d="M753.129,1605.599c0,0-53.358,122.411-15.694,116.133
				C775.1,1715.455,753.129,1605.599,753.129,1605.599z"/>
		</g>
		<g>
			<path style="fill:#A71E1E;" d="M395.313,1382.749c0,0-84.746-134.966-103.578-112.994S395.313,1382.749,395.313,1382.749z"/>
			<path style="fill:#A71E1E;" d="M461.227,1307.42c0,0-59.636-125.549-87.885-103.578
				C345.094,1225.813,461.227,1307.42,461.227,1307.42z"/>
			<path style="fill:#A71E1E;" d="M514.585,1222.674c0,0-40.803-100.439-65.913-81.607
				C423.562,1159.899,514.585,1222.674,514.585,1222.674z"/>
		</g>
	</g>
</g>
</svg>
