<?xml version="1.0" encoding="utf-8"?>
<!-- Generator: Adobe Illustrator 27.5.0, SVG Export Plug-In . SVG Version: 6.00 Build 0)  -->
<svg version="1.1" xmlns="http://www.w3.org/2000/svg" xmlns:xlink="http://www.w3.org/1999/xlink" x="0px" y="0px"
	 viewBox="0 0 500 500" style="enable-background:new 0 0 500 500;" xml:space="preserve">
<g id="BACKGROUND">
	<rect style="fill:#FFBE5F;" width="500" height="500"/>
</g>
<g id="OBJECTS">
	<ellipse style="opacity:0.2;fill:#6F4038;" cx="250" cy="365.336" rx="153.503" ry="17.441"/>
	<g>
		<g>
			<g>
				<defs>
					<path id="XMLID_00000069398137630053639200000015179984199172304782_" d="M144.146,271.404c0,0,76.477,31.341,65.42,94.864
						h-86.305c0,0-6.14-12.637,7.782-15.094c0,0-25.796-22.706-29.891-48"/>
				</defs>
				<use xlink:href="#XMLID_00000069398137630053639200000015179984199172304782_"  style="overflow:visible;fill:#9C7160;"/>
				<clipPath id="XMLID_00000072967413012719167550000001287101919091405991_">
					<use xlink:href="#XMLID_00000069398137630053639200000015179984199172304782_"  style="overflow:visible;"/>
				</clipPath>
				<path style="clip-path:url(#XMLID_00000072967413012719167550000001287101919091405991_);fill:#6F4038;" d="M155.906,366.272
					c0,0-5.415-10.353,6.353-15.789c11.769-5.436,61.536,16.438,61.536,16.438L155.906,366.272"/>
				
					<use xlink:href="#XMLID_00000069398137630053639200000015179984199172304782_"  style="overflow:visible;fill:none;stroke:#593921;stroke-width:1.5814;stroke-miterlimit:10;"/>
			</g>
			<g>
				<path style="fill:#593921;" d="M156.514,350.483c-6.534,1.144-9.356,7.204-9.518,13.275l0.024,2.53l-2.635-0.031
					c0.274-3.165,0.93-6.452,2.415-9.279C148.724,353.403,152.388,350.577,156.514,350.483L156.514,350.483z"/>
			</g>
			<g>
				<path style="fill:#593921;" d="M144.256,350.483c-6.534,1.144-9.356,7.204-9.518,13.275l0.024,2.53l-2.635-0.031
					c0.274-3.165,0.93-6.452,2.415-9.279C136.466,353.403,140.13,350.577,144.256,350.483L144.256,350.483z"/>
			</g>
		</g>
		<g>
			<path style="fill:#9C7160;stroke:#593921;stroke-width:1.5814;stroke-miterlimit:10;" d="M332.319,271.404
				c0,0-51.064,31.341-40.008,94.864h60.892c0,0,6.14-12.637-7.782-15.094c0,0,25.796-22.706,29.891-48"/>
			<g>
				<path style="fill:#593921;" d="M319.951,350.483c4.127,0.095,7.79,2.919,9.714,6.495c1.484,2.823,2.142,6.118,2.415,9.279
					c0,0-2.635,0.031-2.635,0.031c0.069-2.422-0.013-5.168-0.743-7.487C327.606,354.709,324.274,351.136,319.951,350.483
					L319.951,350.483z"/>
			</g>
			<g>
				<path style="fill:#593921;" d="M332.209,350.483c4.127,0.095,7.79,2.92,9.714,6.495c1.484,2.823,2.142,6.118,2.415,9.279
					c0,0-2.635,0.031-2.635,0.031c0.069-2.422-0.013-5.168-0.743-7.487C339.864,354.709,336.532,351.136,332.209,350.483
					L332.209,350.483z"/>
			</g>
		</g>
		<g>
			<defs>
				<path id="XMLID_00000015339134073179263170000005767614183205109166_" d="M363.391,246.993c0,0,47.031,19.184,75.01-11.694
					l-8.902-0.165c0,0,68.674-63.779-33.065-118.464l5.935,11.022c0,0-55.571-31.048-93.724-6.036c0,0,28.429,9.357,35.223,24.689
					c10.424,23.522-29.984,20.224-11.429,62.281"/>
			</defs>
			<use xlink:href="#XMLID_00000015339134073179263170000005767614183205109166_"  style="overflow:visible;fill:#A17262;"/>
			<clipPath id="XMLID_00000108995402929429325880000008364167688642167460_">
				<use xlink:href="#XMLID_00000015339134073179263170000005767614183205109166_"  style="overflow:visible;"/>
			</clipPath>
			<path style="clip-path:url(#XMLID_00000108995402929429325880000008364167688642167460_);fill:#C79E8A;" d="M333.647,231.196
				c0,0,47.031,19.184,75.009-11.694l-8.902-0.165c0,0,68.674-63.779-33.065-118.464l5.935,11.022c0,0-75.575-22.241-113.727,2.77
				c0,0,50.173,8.255,56.967,23.587c10.424,23.522-31.724,12.519-13.17,54.576"/>
			<path style="opacity:0.65;clip-path:url(#XMLID_00000108995402929429325880000008364167688642167460_);fill:#C79E8A;" d="
				M375.741,116.912c0,0-26.73-1.57-46.446,3.758c0,0,34.103,5.062,36.767,30.373l-9.591-8.526c0,0,6.128,20.781-6.927,26.376
				c-13.055,5.595-21.992,8.788-27.975,34.369c-5.983,25.582-36.767,10.391-36.767,10.391l11.989-116.429l93.25,9.591
				L375.741,116.912"/>
			
				<use xlink:href="#XMLID_00000015339134073179263170000005767614183205109166_"  style="overflow:visible;fill:none;stroke:#593921;stroke-width:1.5814;stroke-miterlimit:10;"/>
		</g>
		<g>
			<defs>
				<path id="XMLID_00000113325243798176784340000014446427103426763161_" d="M138.133,176.939c0,0,25.74-31.789,79.242-26.875
					c53.502,4.913,71.639,9.19,107.856,18.762c46.134,12.194,73.473,70.705,59.202,123.37
					c-11.257,41.542-43.708,74.724-89.012,74.072c0,0-57.042-0.229-64.549-0.311c-60.129-0.652-130.656,13.005-134.15-89.16
					C94.106,200.29,138.133,176.939,138.133,176.939z"/>
			</defs>
			<use xlink:href="#XMLID_00000113325243798176784340000014446427103426763161_"  style="overflow:visible;fill:#C79E8A;"/>
			<clipPath id="XMLID_00000157277284229919321660000015110717245748079498_">
				<use xlink:href="#XMLID_00000113325243798176784340000014446427103426763161_"  style="overflow:visible;"/>
			</clipPath>
			<path style="clip-path:url(#XMLID_00000157277284229919321660000015110717245748079498_);fill:#6F4038;" d="M296.258,154.549
				c28.851,17.485,14.928,64.191,29.55,74.708c14.622,10.517,31.491-57.439,0-84.946c-31.491-27.506-20.321,13.796-20.321,13.796"/>
			<path style="clip-path:url(#XMLID_00000157277284229919321660000015110717245748079498_);fill:#6F4038;" d="M253.35,146.009
				c28.851,17.485,14.928,64.19,29.55,74.708c14.622,10.517,31.491-57.439,0-84.946c-31.491-27.506-20.321,13.796-20.321,13.796"/>
			<path style="clip-path:url(#XMLID_00000157277284229919321660000015110717245748079498_);fill:#6F4038;" d="M213,134.49
				c28.851,17.485,14.928,64.19,29.55,74.708c14.622,10.517,31.491-57.439,0-84.946s-20.322,13.796-20.322,13.796"/>
			<path style="clip-path:url(#XMLID_00000157277284229919321660000015110717245748079498_);fill:#A17262;" d="M378.805,218.236
				c0,0,4.093,67.331-39.626,92.552c0,0,4.096-20.985-12.11-40.243c0,0,0.747,20.425-12.566,32.629l-13.885-18.266
				c0,0,4.233,28.563-32.61,66.266l0,0c0,0,17.583,1.895,3.667,24.857c-14.725,24.296,116.552,21.66,116.552,21.66l23.053-172.109
				L378.805,218.236"/>
			<path style="clip-path:url(#XMLID_00000157277284229919321660000015110717245748079498_);fill:#A17262;" d="M239.769,240.409
				l17.285,37.62c0,0-20.931,32.877-12.717,88.239c8.214,55.362-154.047,36.986-154.047,36.986l10.055-146.849L239.769,240.409z"/>
			
				<ellipse style="opacity:0.43;clip-path:url(#XMLID_00000157277284229919321660000015110717245748079498_);fill:#6F4038;" cx="158.792" cy="287.519" rx="64.395" ry="54.779"/>
			<path style="clip-path:url(#XMLID_00000157277284229919321660000015110717245748079498_);fill:#C79E8A;" d="M98.849,295.597
				c0,0,13.972,30.401,30.906,39.218h-7.606c10.513,9.504,27.455,17.851,46.204,25.872l-82.318-4.791l8.362-65.625L98.849,295.597"
				/>
			<path style="opacity:0.65;clip-path:url(#XMLID_00000157277284229919321660000015110717245748079498_);fill:#C79E8A;" d="
				M145.703,179.094c0,0,42.315-40.049,146.838-7.686l-9.184-8.859l54.258,10.848l-89.671-33.04l-114.499-0.437l-6.856,41.11
				L145.703,179.094z"/>
			<path style="opacity:0.43;clip-path:url(#XMLID_00000157277284229919321660000015110717245748079498_);fill:#6F4038;" d="
				M295.742,310.788c0,0-8.594,28.816-18.074,39.695c0,0,12.421,5.649,8.499,20.685h-11.57c0,0,10.456-15.798-6.588-19.994l0,0
				C279.909,340.441,289.083,326.907,295.742,310.788"/>
			<path style="opacity:0.43;clip-path:url(#XMLID_00000157277284229919321660000015110717245748079498_);fill:#6F4038;" d="
				M235.363,303.174c0,0-21.171,37.236-19.223,68.074h17.529C233.669,371.248,222.773,335.407,235.363,303.174"/>
			
				<use xlink:href="#XMLID_00000113325243798176784340000014446427103426763161_"  style="overflow:visible;fill:none;stroke:#593921;stroke-width:2;stroke-miterlimit:10;"/>
		</g>
		<path style="fill:#AF2743;stroke:#582721;stroke-width:1.5814;stroke-miterlimit:10;" d="M110.189,294.827
			c0,0,7.292,26.613,51.13,26.613c43.839,0,65.638-36.532,65.638-36.532S172.97,321.607,110.189,294.827z"/>
		<path style="opacity:0.33;fill:#6F0104;" d="M117.116,292.901c0,0,6.427,21.445,45.064,21.445
			c38.637,0,57.851-29.438,57.851-29.438S172.448,314.481,117.116,292.901z"/>
		<g>
			<defs>
				<path id="XMLID_00000074422575552593713370000003449300897829572241_" d="M104.67,195.639c0,0-9.327-18.178-10.273-33.09
					c0,0,14.687,3.311,24.802,16.545L104.67,195.639z"/>
			</defs>
			<use xlink:href="#XMLID_00000074422575552593713370000003449300897829572241_"  style="overflow:visible;fill:#FFA19D;"/>
			<clipPath id="XMLID_00000121987654102617609630000011809516760431974019_">
				<use xlink:href="#XMLID_00000074422575552593713370000003449300897829572241_"  style="overflow:visible;"/>
			</clipPath>
			<path style="clip-path:url(#XMLID_00000121987654102617609630000011809516760431974019_);fill:#FA6D85;" d="M78.192,160.669
				c0,0,30.639,6.255,33.922,47.903L134,184.784l-36.33-29.545L78.192,160.669z"/>
			
				<use xlink:href="#XMLID_00000074422575552593713370000003449300897829572241_"  style="overflow:visible;fill:none;stroke:#593921;stroke-width:1.5814;stroke-miterlimit:10;"/>
		</g>
		<g>
			<defs>
				<path id="XMLID_00000031203140296520252210000000415988878858968730_" d="M215.416,195.639c0,0,8.751-18.178,9.697-33.09
					c0,0-14.111,3.311-24.226,16.545L215.416,195.639z"/>
			</defs>
			<use xlink:href="#XMLID_00000031203140296520252210000000415988878858968730_"  style="overflow:visible;fill:#FFA19D;"/>
			<clipPath id="XMLID_00000003077309441642541300000015442944017523709370_">
				<use xlink:href="#XMLID_00000031203140296520252210000000415988878858968730_"  style="overflow:visible;"/>
			</clipPath>
			<path style="clip-path:url(#XMLID_00000003077309441642541300000015442944017523709370_);fill:#FA6D85;" d="M240.904,159.353
				c0,0-30.639,6.255-33.922,47.904l-21.885-23.789l36.329-29.545L240.904,159.353z"/>
			
				<use xlink:href="#XMLID_00000031203140296520252210000000415988878858968730_"  style="overflow:visible;fill:none;stroke:#593921;stroke-width:1.5814;stroke-miterlimit:10;"/>
		</g>
		<g>
			<defs>
				<path id="XMLID_00000132049828553463503910000006202346458973340815_" d="M203.982,180.669c0,0,13.268-15.989,21.131-18.121
					c0,0-25.062,2.665-43.736,14.39c0,0-11.794-3.198-21.622-3.198c-9.828,0-21.622,3.198-21.622,3.198
					c-18.674-11.725-43.736-14.39-43.736-14.39c7.863,2.132,21.131,18.121,21.131,18.121c-30.959,29.313-43.74,77.533-38.786,88.644
					c6.995,15.688,53.037,38.735,83.013,38.735s76.019-23.047,83.013-38.735C247.722,258.203,234.941,209.983,203.982,180.669z"/>
			</defs>
			<use xlink:href="#XMLID_00000132049828553463503910000006202346458973340815_"  style="overflow:visible;fill:#C79E8A;"/>
			<clipPath id="XMLID_00000067209788984475751810000001196022795692767659_">
				<use xlink:href="#XMLID_00000132049828553463503910000006202346458973340815_"  style="overflow:visible;"/>
			</clipPath>
			<path style="clip-path:url(#XMLID_00000067209788984475751810000001196022795692767659_);fill:#6F4038;" d="M185.936,175.181
				c-14.253,8.638-7.374,31.71-14.598,36.906c-7.223,5.195-15.557-28.375,0-41.963c15.557-13.588,10.039,6.815,10.039,6.815"/>
			<path style="clip-path:url(#XMLID_00000067209788984475751810000001196022795692767659_);fill:#6F4038;" d="M159.325,172.274
				c-14.252,8.638-7.374,31.71-14.598,36.906c-7.223,5.195-15.557-28.375,0-41.963c15.557-13.588,10.039,6.815,10.039,6.815"/>
			<path style="clip-path:url(#XMLID_00000067209788984475751810000001196022795692767659_);fill:#DCB8AA;" d="M106.798,189.965
				c0,0-25.58,48.311-17.703,73.042l-7.229-2.027c0,0,4.286,18.072,23.648,32.891c19.363,14.819-29.81,14.178-29.81,14.178
				L70.3,193.753L106.798,189.965"/>
			<path style="clip-path:url(#XMLID_00000067209788984475751810000001196022795692767659_);fill:#A17262;" d="M232.24,153.68
				c0,0-26.392,14.142-36.804,30.67L213,227.23l1.523-22.582l14.852,40.687c-6.639,28.107-37.225,31.195-51.997,27.234
				l-0.368,59.722l96.204-43.775L238.126,180.52"/>
			<path style="opacity:0.65;clip-path:url(#XMLID_00000067209788984475751810000001196022795692767659_);fill:#C79E8A;" d="
				M89.3,159.511c0,0,34.965,8.824,47.059,24.645c0,0,29.012-6.019,46.034,0.008c0,0,22.759-19.769,42.72-21.615
				c19.961-1.846,23.333-23.581,23.333-23.581L83.548,153.211L89.3,159.511z"/>
			
				<use xlink:href="#XMLID_00000132049828553463503910000006202346458973340815_"  style="overflow:visible;fill:none;stroke:#593921;stroke-width:1.5814;stroke-miterlimit:10;"/>
		</g>
		<g>
			<path id="XMLID_00000086686044739418163800000009693749156411803038_" style="fill:#A17262;" d="M105.576,227.192
				c0,0-2.114,19.504,18.617,19.797c21.953,0.31,22.223-20.048,22.223-20.048L105.576,227.192z"/>
			<g>
				<defs>
					<path id="XMLID_00000154407375668284480100000005791344657934486447_" d="M108.242,226.894c0,0-1.774,16.26,16.18,16.565
						c19.012,0.323,19.187-16.655,19.187-16.655L108.242,226.894z"/>
				</defs>
				<use xlink:href="#XMLID_00000154407375668284480100000005791344657934486447_"  style="overflow:visible;fill:#FBC600;"/>
				<clipPath id="XMLID_00000088815022720244850730000011409888723789266061_">
					<use xlink:href="#XMLID_00000154407375668284480100000005791344657934486447_"  style="overflow:visible;"/>
				</clipPath>
				<path style="clip-path:url(#XMLID_00000088815022720244850730000011409888723789266061_);fill:#F9EC00;" d="M135.895,234.734
					c-0.287,3.173-5.451,5.299-11.534,4.749c-6.083-0.551-10.781-3.57-10.494-6.743c0.287-3.173,5.451-5.299,11.534-4.749
					C131.484,228.541,136.182,231.56,135.895,234.734z"/>
				
					<use xlink:href="#XMLID_00000154407375668284480100000005791344657934486447_"  style="overflow:visible;fill:none;stroke:#593921;stroke-width:1.7961;stroke-miterlimit:10;"/>
			</g>
			<path style="fill:#340609;" d="M118.853,226.893c0,0-1.092,9.997,9.992,10.189c11.737,0.203,11.841-10.236,11.841-10.236
				L118.853,226.893z"/>
			<path style="fill:#340609;" d="M152.336,225.788l-51.495-0.207C100.841,225.582,117.063,232.859,152.336,225.788z"/>
			<path style="fill:#E0ECF8;" d="M125.401,232.764c-0.081,0.89-1.859,1.457-3.972,1.265c-2.113-0.191-3.761-1.068-3.68-1.958
				c0.081-0.89,1.859-1.457,3.972-1.265C123.834,230.998,125.481,231.874,125.401,232.764z"/>
		</g>
		<g>
			<path id="XMLID_00000099621343787533726990000012904686768367264426_" style="fill:#A17262;" d="M161.38,227.192
				c0,0-2.114,19.504,18.617,19.797c21.953,0.31,22.223-20.048,22.223-20.048L161.38,227.192z"/>
			<g>
				<defs>
					<path id="XMLID_00000103257372875346364900000016419902412060135045_" d="M164.047,226.894c0,0-1.774,16.26,16.18,16.565
						c19.012,0.323,19.187-16.655,19.187-16.655L164.047,226.894z"/>
				</defs>
				<use xlink:href="#XMLID_00000103257372875346364900000016419902412060135045_"  style="overflow:visible;fill:#FBC600;"/>
				<clipPath id="XMLID_00000150803966662937802970000010402954996851376775_">
					<use xlink:href="#XMLID_00000103257372875346364900000016419902412060135045_"  style="overflow:visible;"/>
				</clipPath>
				<path style="clip-path:url(#XMLID_00000150803966662937802970000010402954996851376775_);fill:#F9EC00;" d="M191.699,234.734
					c-0.287,3.173-5.451,5.299-11.534,4.749c-6.083-0.551-10.781-3.57-10.494-6.743c0.287-3.173,5.451-5.299,11.534-4.749
					C187.288,228.541,191.986,231.56,191.699,234.734z"/>
				
					<use xlink:href="#XMLID_00000103257372875346364900000016419902412060135045_"  style="overflow:visible;fill:none;stroke:#593921;stroke-width:1.7961;stroke-miterlimit:10;"/>
			</g>
			<path style="fill:#340609;" d="M174.657,226.893c0,0-1.092,9.997,9.992,10.189c11.737,0.203,11.841-10.236,11.841-10.236
				L174.657,226.893z"/>
			<path style="fill:#340609;" d="M208.14,225.788l-51.495-0.207C156.646,225.582,172.867,232.859,208.14,225.788z"/>
			<path style="fill:#E0ECF8;" d="M181.205,232.764c-0.081,0.89-1.859,1.457-3.972,1.265c-2.113-0.191-3.761-1.068-3.68-1.958
				c0.081-0.89,1.859-1.457,3.972-1.265S181.286,231.874,181.205,232.764z"/>
		</g>
		<g>
			<g>
				<defs>
					<path id="XMLID_00000072990546010137931600000008146401924938426552_" d="M149.667,233.363
						c18.712-0.436,39.337,35.925,34.131,59.582c-5.207,23.657-57.214,16.847-61.127-5.735
						C118.758,264.628,137.757,233.64,149.667,233.363z"/>
				</defs>
				<use xlink:href="#XMLID_00000072990546010137931600000008146401924938426552_"  style="overflow:visible;fill:#EAE2CB;"/>
				<clipPath id="XMLID_00000056427508071675282140000013814568452286558595_">
					<use xlink:href="#XMLID_00000072990546010137931600000008146401924938426552_"  style="overflow:visible;"/>
				</clipPath>
				
					<ellipse style="clip-path:url(#XMLID_00000056427508071675282140000013814568452286558595_);fill:#FFFEFF;" cx="124.08" cy="243.464" rx="27.628" ry="20.757"/>
				
					<use xlink:href="#XMLID_00000072990546010137931600000008146401924938426552_"  style="overflow:visible;fill:none;stroke:#593921;stroke-width:1.9543;stroke-miterlimit:10;"/>
			</g>
			<g>
				
					<line style="fill:none;stroke:#593921;stroke-width:3.0175;stroke-miterlimit:10;" x1="149.291" y1="253.445" x2="149.291" y2="272.569"/>
				<g>
					<path style="fill:#593921;" d="M139.495,282.191c2.596-4.799,6.119-9.006,9.778-13.013c3.762,3.988,7.376,8.194,10.052,13.013
						c-4.155-2.717-7.757-6.16-11.137-9.76l2.22-0.013C147.094,276.008,143.569,279.451,139.495,282.191L139.495,282.191z"/>
				</g>
				<g>
					<defs>
						<path id="XMLID_00000047747041435259014910000014908457474077319300_" d="M156.946,242.967c-5.103-0.904-10.207-0.904-15.31,0
							c-1.252,0.222-1.957,1.365-1.45,2.364c1.824,3.591,5.996,11.073,9.105,11.073c3.109,0,7.282-7.482,9.105-11.073
							C158.903,244.333,158.198,243.189,156.946,242.967z"/>
					</defs>
					<use xlink:href="#XMLID_00000047747041435259014910000014908457474077319300_"  style="overflow:visible;fill:#593921;"/>
					<clipPath id="XMLID_00000034785829580796400430000015427572687233434793_">
						<use xlink:href="#XMLID_00000047747041435259014910000014908457474077319300_"  style="overflow:visible;"/>
					</clipPath>
					
						<ellipse style="clip-path:url(#XMLID_00000034785829580796400430000015427572687233434793_);fill:#6F4038;" cx="148.639" cy="243.586" rx="10.888" ry="5.192"/>
					
						<use xlink:href="#XMLID_00000047747041435259014910000014908457474077319300_"  style="overflow:visible;fill:none;stroke:#593921;stroke-width:1.0058;stroke-miterlimit:10;"/>
				</g>
			</g>
		</g>
		<g>
			<defs>
				<path id="XMLID_00000152247906353110626060000014639099880888459691_" d="M147.989,326.772c2.193,6.26,9.045,9.558,15.306,7.365
					c6.26-2.193,9.558-9.045,7.365-15.306c-2.193-6.26-9.045-9.558-15.306-7.365C149.094,313.659,145.796,320.511,147.989,326.772z"
					/>
			</defs>
			<use xlink:href="#XMLID_00000152247906353110626060000014639099880888459691_"  style="overflow:visible;fill:#FBC600;"/>
			<clipPath id="XMLID_00000073719303939703970720000006355952231955807118_">
				<use xlink:href="#XMLID_00000152247906353110626060000014639099880888459691_"  style="overflow:visible;"/>
			</clipPath>
			<path style="clip-path:url(#XMLID_00000073719303939703970720000006355952231955807118_);fill:#F9EC00;" d="M167.015,320.232
				c-0.287,3.173-3.77,5.452-7.78,5.089c-4.009-0.363-7.027-3.23-6.739-6.403c0.287-3.173,3.77-5.452,7.78-5.089
				C164.285,314.192,167.302,317.059,167.015,320.232z"/>
			<path style="clip-path:url(#XMLID_00000073719303939703970720000006355952231955807118_);fill:#593921;" d="M156.968,328.66
				c0.235,0.671,2.109,0.625,4.185-0.102c2.077-0.727,3.57-1.861,3.335-2.532s-2.109-0.625-4.185,0.102
				C158.226,326.856,156.733,327.989,156.968,328.66z"/>
			
				<rect x="161.452" y="327.427" transform="matrix(0.9438 -0.3306 0.3306 0.9438 -100.6299 72.3234)" style="clip-path:url(#XMLID_00000073719303939703970720000006355952231955807118_);fill:#593921;" width="1.701" height="9.137"/>
			
				<use xlink:href="#XMLID_00000152247906353110626060000014639099880888459691_"  style="overflow:visible;fill:none;stroke:#593921;stroke-width:1.7961;stroke-miterlimit:10;"/>
		</g>
		<g>
			<g>
				<path style="fill:#593921;" d="M253.896,272.273c-7.023,7.517-11.78,17.039-15.622,26.498c-8.559,21.079-9.374,44.589-5.5,66.82
					c0,0-0.98-0.828-0.98-0.828l44.842,0.212l-0.923,0.605c2.986-8.549-1.528-12.801-9.83-13.763c0,0,1.447-1.378,1.447-1.378
					c10.363-10.061,19.269-21.81,26.068-34.57c2.173-4.322,3.982-8.845,5.198-13.568c-1.674,9.682-5.921,18.733-11.046,27.058
					c-5.505,8.159-11.752,15.717-18.863,22.549l-0.504-1.72c9.003,1.337,12.652,8.501,9.13,16.789c0,0-0.686-0.003-0.686-0.003
					l-44.842-0.212l-0.837-0.004C225.168,334.442,228.93,295.97,253.896,272.273L253.896,272.273z"/>
			</g>
			<g>
				<path style="fill:#593921;" d="M243.235,349.611c4.127,0.095,7.79,2.92,9.714,6.496c1.484,2.823,2.142,6.118,2.415,9.279
					c0,0-2.635,0.031-2.635,0.031c0.069-2.422-0.012-5.168-0.743-7.486C250.89,353.837,247.558,350.264,243.235,349.611
					L243.235,349.611z"/>
			</g>
			<g>
				<path style="fill:#593921;" d="M255.493,349.611c4.127,0.095,7.79,2.919,9.714,6.496c1.484,2.823,2.142,6.118,2.415,9.279
					c0,0-2.635,0.031-2.635,0.031c0.069-2.422-0.013-5.168-0.743-7.486C263.148,353.837,259.816,350.264,255.493,349.611
					L255.493,349.611z"/>
			</g>
		</g>
	</g>
</g>
</svg>
