<?xml version="1.0" encoding="utf-8"?>
<!-- Generator: Adobe Illustrator 27.5.0, SVG Export Plug-In . SVG Version: 6.00 Build 0)  -->
<svg version="1.1" id="Layer_1" xmlns="http://www.w3.org/2000/svg" xmlns:xlink="http://www.w3.org/1999/xlink" x="0px" y="0px"
	 viewBox="0 0 4000 4000" style="enable-background:new 0 0 4000 4000;" xml:space="preserve">
<g>
	<g>
		<rect style="fill:#3AAAFF;" width="4000" height="4000"/>
	</g>
	<g>
		<g>
			<g>
				<path style="fill:#FFA502;" d="M3443.95,2075.5c-28.95,55.45-102,70.75-151.95,32.8c-94.65-71.9-178.55-170.85-259.7-147.35
					l-35.35-329.65l-3.9-36.35c17.401,30.85,36.101,56.6,56.95,73.6c4.5,3.65,9.05,6.85,13.75,9.65l0.25,0.15
					c44,26.15,97.7,13.35,168.6-68.45l65-80.95c13.75-17.1,38.4-21.4,56.7-9.35c34.05,22.4,61.4,53.3,82.5,89.6
					C3515.1,1743.85,3508.05,1952.6,3443.95,2075.5z"/>
			</g>
			<g>
				<path style="fill:#000072;" d="M3354.136,2149.224c-26.606,0-52.666-8.623-74.238-25.005
					c-22.341-16.973-43.999-35.337-64.941-53.096c-64.297-54.531-125.027-106.021-177.097-90.942
					c-10.601,3.066-21.704-3.032-24.775-13.643c-3.074-10.61,3.035-21.704,13.643-24.775
					c72.686-21.089,141.382,37.178,214.102,98.853c20.54,17.417,41.78,35.43,63.264,51.748
					c19.475,14.795,44.404,20.205,68.367,14.824c23.301-5.215,42.891-20.142,53.748-40.952
					c74.38-142.568,72.349-427.896-82.881-529.912c-9.543-6.265-22.764-4.014-30.107,5.146l-65.01,80.952
					c-0.154,0.19-0.315,0.386-0.476,0.571c-54.832,63.286-104.229,91.826-151.035,87.07c-58.572-5.879-97.144-62.905-121.06-105.288
					c-5.43-9.619-2.031-21.816,7.588-27.246s21.821-2.031,27.246,7.588c30.63,54.277,60.142,82.129,90.222,85.146
					c32.437,3.228,71.614-21.372,116.565-73.184l64.771-80.659c20.11-25.049,56.682-31.001,83.264-13.525
					c78.403,51.528,129.683,148.599,144.385,273.335c13.035,110.576-4.912,225.903-48.008,308.511
					c-16.318,31.279-45.649,53.687-80.474,61.484C3372.217,2148.232,3363.145,2149.224,3354.136,2149.224z"/>
			</g>
			<g>
				<path style="fill:#000072;" d="M3055.635,1748.369c0.833,0.361,2.29,0.859,3.584,1.318c1.282,0.483,2.7,0.903,4.094,1.338
					c2.761,0.903,5.593,1.724,8.499,2.451c5.706,1.65,11.655,2.749,17.529,4.063c11.895,2.095,23.95,3.823,36.125,4.497
					c12.163,0.894,24.414,0.815,36.65,0.278l18.357-1.377l18.257-2.632l4.573-0.669l4.509-1.001l9.028-1.997
					c6.035-1.299,12.095-2.563,17.954-4.561l17.781-5.405c5.813-2.139,11.548-4.521,17.344-6.772l8.684-3.423
					c2.91-1.113,5.61-2.686,8.433-4.004l16.79-8.281l4.199-2.085l4.016-2.417l8.042-4.834l16.13-9.688l0.52-0.317
					c3.464-2.08,7.961-0.957,10.042,2.51c1.997,3.32,1.028,7.603-2.109,9.785l-16.042,11.104l-8.044,5.557l-4.028,2.778
					l-4.229,2.456l-16.992,9.775c-2.869,1.572-5.613,3.394-8.586,4.761l-8.892,4.189c-5.945,2.764-11.848,5.659-17.861,8.311
					l-18.479,6.943c-6.113,2.505-12.463,4.277-18.816,6.079l-9.526,2.754l-4.768,1.372l-4.849,1.035l-19.456,4.077l-19.722,2.759
					c-13.201,1.44-26.519,2.363-39.875,2.251c-13.357,0.098-26.736-0.928-40.115-2.432c-6.675-1.025-13.364-1.851-20.049-3.306
					c-3.34-0.62-6.697-1.362-10.071-2.227c-1.685-0.41-3.357-0.796-5.107-1.318c-1.748-0.503-3.35-0.918-5.518-1.655l-0.269-0.093
					c-8.953-3.042-13.745-12.764-10.703-21.719s12.766-13.75,21.721-10.708C3054.802,1748.032,3055.242,1748.203,3055.635,1748.369z
					"/>
			</g>
			<g>
				<path style="fill:#000072;" d="M3038.066,1804.692c5.652,1.885,12.275,3.896,18.638,5.566c6.406,1.802,12.952,3.291,19.46,4.883
					c13.103,2.939,26.326,5.532,39.648,7.661c26.638,4.316,53.625,6.953,80.688,7.705l10.156,0.376l10.154-0.039
					c6.77-0.083,13.56-0.005,20.332-0.22c13.516-0.82,27.119-1.128,40.581-2.852c27.09-2.319,53.76-7.764,80.313-13.838l0.325-0.073
					c3.945-0.903,7.874,1.567,8.777,5.508c0.867,3.799-1.404,7.583-5.088,8.667c-26.814,7.842-53.999,15.063-81.772,19.116
					c-13.816,2.593-27.8,3.755-41.76,5.42c-6.995,0.64-14.006,0.977-21.021,1.475l-10.527,0.659l-10.537,0.239
					c-28.12,0.869-56.318-0.2-84.395-3.062c-14.043-1.406-28.054-3.296-42.048-5.581c-6.985-1.27-13.979-2.441-20.967-3.965
					c-7.078-1.436-13.787-3.003-21.357-5.054c-9.124-2.471-14.519-11.875-12.048-21.001c2.473-9.126,11.873-14.517,20.999-12.046
					c0.303,0.083,0.603,0.171,0.896,0.269L3038.066,1804.692z"/>
			</g>
			<g>
				<path style="fill:#000072;" d="M3043.103,1861.23c9.897,4.185,21.191,8.218,32.068,11.904
					c11.035,3.638,22.163,7.134,33.42,10.249c22.498,6.284,45.293,11.831,68.347,16.196c23.052,4.326,46.277,8.13,69.68,10.537
					c23.379,2.759,46.907,4.048,70.486,4.971l0.181,0.005c4.045,0.156,7.197,3.564,7.039,7.612
					c-0.151,3.867-3.298,6.919-7.109,7.041c-23.979,0.713-48.04,1.04-72.073-0.137c-24.058-0.82-48.059-3.071-72.017-5.894
					c-23.965-2.856-47.793-6.943-71.519-11.851c-11.87-2.432-23.674-5.259-35.471-8.276c-11.892-3.164-23.289-6.309-35.635-10.552
					c-8.943-3.071-13.701-12.813-10.627-21.758c3.074-8.94,12.815-13.701,21.758-10.625c0.359,0.122,0.713,0.259,1.06,0.4
					L3043.103,1861.23z"/>
			</g>
			<g style="opacity:0.3;">
				<path style="fill:#000072;" d="M3443.95,2075.5c-28.95,55.45-102,70.75-151.95,32.8c-94.65-71.9-178.55-170.85-259.7-147.35
					l-35.35-329.65l53.05,37.25l13.75,9.65l0.25,0.15c71.5,385.3,444.25,316.1,372.75-69.15c0,0,0,0,0.05,0
					C3515.1,1743.85,3508.05,1952.6,3443.95,2075.5z"/>
			</g>
			<g>
				<path style="fill:#FFA502;" d="M971.4,2225.8c-72.9,61.4-152.65,107.55-238.05,141.35c-34.6,13.7-72.65-8.8-78.55-45.5
					c-10.8-67.15-12.1-132.25,0.15-194.3c6.05-30.85,32.55-53.45,63.9-55.4l165.7-10.4
					C925.471,2096.757,955.278,2150.107,971.4,2225.8z"/>
			</g>
			<g style="opacity:0.6;">
				<path style="fill:#FFFFFF;" d="M913.35,2091.7l-155.75,9.8c-31.35,1.95-57.85,24.55-63.9,55.4
					c-12.25,62.05-10.95,127.15-0.15,194.3c1.1,6.75,3.25,13,6.3,18.6c-22.4-5-41.05-23.35-45.05-48.15
					c-10.8-67.15-12.1-132.25,0.15-194.3c6.05-30.85,32.55-53.45,63.9-55.4l165.7-10.4C894.85,2070.45,904.5,2080.45,913.35,2091.7z
					"/>
			</g>
			<g>
				<polygon style="fill:#FFA502;" points="2649.552,2681.236 2810.027,2781.333 2748.497,2586.652 				"/>
			</g>
			<g>
				<polygon style="fill:#FFA502;" points="2227.287,2900.429 2317.527,3046.333 2334.473,2866.127 				"/>
			</g>
			<g>
				<polygon style="fill:#FFA502;" points="1638.446,2894.997 1685.027,3105.083 1769.356,2923.912 				"/>
			</g>
			<g>
				<polygon style="fill:#FFA502;" points="1244.904,2679.8 1153.777,2928.833 1361.715,2769.41 				"/>
			</g>
			<g>
				<polygon style="fill:#FFA502;" points="1017.198,2361.285 873.777,2527.583 1076.832,2477.468 				"/>
			</g>
			<g>
				<path style="fill:#FF223D;" d="M949.331,2113.545c-353.055-236.411-175.555-762.963,120.871-761.656"/>
			</g>
			<g style="opacity:0.6;">
				<path style="fill:#FFFFFF;" d="M947.9,2112.55c-351.1-236.85-173.7-761.95,122.3-760.65l-5.65,35.7
					C809.85,1435.95,670.15,1877.95,947.9,2112.55z"/>
			</g>
			<g>
				<path style="fill:#FFA502;" d="M3023.9,2027.85c-22.3,140.95-73.75,278.1-153.75,401.75
					c-443.7,686.05-1406.55,644.65-1779.5,69.8c-95.1-146.6-151.85-327.85-151.85-540.55c-67-163.25-51.65-368.45,92.1-507.35
					c22.4-67.3,50.95-129.5,84.75-186.5v-0.05c372.85-629.4,1381.7-628.65,1790.65,99.25c39.9,71.05,70.6,145.7,92.15,222.3
					C3038.95,1730.45,3047.2,1881.2,3023.9,2027.85z"/>
			</g>
			<g>
				<path style="fill:#FFFFFF;" d="M1393.4,1482.4c0,258.5-401.3,1-151.699-172.75
					C1306.841,1361.061,1354.785,1419.755,1393.4,1482.4z"/>
			</g>
			<g style="opacity:0.6;">
				<path style="fill:#FFFFFF;" d="M2028.1,1731.5c8.8,77.3-13.65,130.65-76.8,152.9l0.1-0.5c-17.75,68.35-21,146.25-10.85,233
					c-101.2-213.1-17.65-488.55,293.25-520.1C2144.6,1628.05,2076.55,1673.3,2028.1,1731.5z"/>
			</g>
			<g>
				<g>
					<path style="fill:#FFFFFF;" d="M2251.249,1599.046c88.778-45.535,73.976-231.432-17.472-239.639l-333.55,184.251
						c-53.95,72.675-23.928,214.356,51.05,205.842C1951.277,1749.5,2045.832,1581.426,2251.249,1599.046z"/>
				</g>
			</g>
			<g>
				<g>
					<path style="fill:#FFC994;" d="M2713.111,2628.731c0,0-0.837,5.752-2.549,16.209
						c-534.288,484.254-1373.021,331.694-1679.878-251.797c9.085-155.574,137.351-287.622,340.452-312.606
						c149.059-12.096,246.046-11.764,398.22,36.649c236.087,75.108,457.931,289.322,760.361,448.627
						c0,0,65.041,61.233,116.426,25.247L2713.111,2628.731z"/>
				</g>
			</g>
			<g>
				<path style="fill:#FF223D;" d="M2998.45,1586.5c-242.999,95.15-464.55-139.6-464.55-139.6c60.55-28.35,82.05-71.25,87.35-109.8
					c5.9-42.5-7.85-85.35-35.3-118.45c-395.15-476.6-1152.2-328.95-1470.3,46.3c278.7-470.45,912.65-588.85,1385.9-314.7l0.05,0.1
					c159.9,92.6,301.449,230.05,404.7,413.85C2946.2,1435.25,2976.9,1509.9,2998.45,1586.5z"/>
			</g>
			<g style="opacity:0.6;">
				<path style="fill:#FFFFFF;" d="M1019.1,1563.1c65.95-44.95,135.25-37,207.15,10.65c-80.65-18.65-147.7-7.6-202.35,30.7
					c-0.85,51.7-23.25,83.6-65,97.55c-19.1,87.35-6.15,205.5,29.9,293.3c0,338.2,143.45,596.9,356.4,763.1
					c-240.2-163.6-406.4-435.5-406.4-799.55c-67-163.25-51.65-368.45,92.1-507.35c22.4-67.3,50.95-129.5,84.75-186.5v-0.05
					c302.75-511.1,1024.95-606.65,1504.7-234.7c-478.6-328.5-1162.25-222.5-1454.7,271.15v0.05
					c-20.821,35.112-39.65,72.198-56.276,111.233c-18.391,43.177-41.298,84.428-69.952,121.596
					C1032.174,1543.681,1025.403,1553.296,1019.1,1563.1z"/>
			</g>
			<g>
				<path style="fill:#000072;" d="M1941.968,2959.746c-107.583,0-214.978-15.117-317.749-45.454
					c-203.396-60.044-376.646-174.526-501.013-331.079c-134.539-169.351-206.045-383.638-206.921-619.971
					c-75.198-187.583-38.057-392.173,95.005-524.033c63.223-186.47,177.864-345.234,331.799-459.414
					c145.366-107.822,322.161-174.36,511.272-192.417c205.762-19.648,412.285,18.574,597.249,110.527
					c198.364,98.618,362.378,256.05,474.309,455.273c93.618,166.631,139.514,356.528,132.727,549.16
					c-6.76,191.816-65.41,378.369-169.609,539.482c-141.035,218.071-342.08,376.392-581.404,457.847
					C2190.107,2939.668,2065.916,2959.741,1941.968,2959.746z M1962.607,827.202c-34.412,0-69.072,1.641-103.97,4.971
					c-386.599,36.919-688.057,271.099-806.396,626.44c-1.145,3.438-3.105,6.553-5.713,9.072
					c-123.943,119.771-158.066,309.209-86.934,482.607c1.111,2.71,1.682,5.61,1.682,8.54c0,525.581,349.036,815.874,675.681,912.3
					c94.949,28.027,198.474,43.281,305.044,43.291c325.405,0.015,679.727-142.148,909.246-497.036
					c204.968-316.919,218.545-716.255,35.437-1042.168C2693.176,1030.796,2345.542,827.202,1962.607,827.202z"/>
			</g>
			<g style="opacity:0.3;">
				<path style="fill:#000072;" d="M2998.45,1586.5c-242.999,95.15-464.55-139.6-464.55-139.6c60.55-28.35,82.05-71.25,87.35-109.8
					c5.9-42.5-7.85-85.35-35.3-118.45c106.25-119.9-79.8-264.75-84.349-268.3c159.9,92.6,301.449,230.05,404.7,413.85
					C2946.2,1435.25,2976.9,1509.9,2998.45,1586.5z"/>
			</g>
			<g>
				<ellipse style="fill:#FF223D;" cx="2709.942" cy="1787.785" rx="326.86" ry="404.509"/>
			</g>
			<g>
				<ellipse style="fill:#FFFFFF;" cx="2862.033" cy="1787.785" rx="171.813" ry="255.052"/>
			</g>
			<g>
				<ellipse style="fill:#000072;" cx="2877.033" cy="1787.785" rx="77.967" ry="115.74"/>
			</g>
			<g style="opacity:0.3;">
				<path style="fill:#000072;" d="M3036.8,1787.8c0,223.4-146.349,404.5-326.85,404.5c-136.05,0-252.65-102.8-301.85-249.1
					c47.85,33.85,103.25,53.25,162.3,53.25c180.549,0,326.849-181.1,326.849-404.5c0-55.05-8.85-107.5-24.95-155.3
					C2970.6,1506.4,3036.8,1637.55,3036.8,1787.8z"/>
			</g>
			<g style="opacity:0.6;">
				<path style="fill:#FFFFFF;" d="M2425.05,1821c0,132.25,51.3,249.7,130.6,323.45c-102.75-68.15-172.55-202.3-172.55-356.65
					c0-223.4,146.3-404.5,326.85-404.5c73.6,0,141.5,30.15,196.15,80.95c-45.95-30.45-98.45-47.75-154.2-47.75
					C2571.4,1416.5,2425.05,1597.6,2425.05,1821z"/>
			</g>
			<g>
				<path style="fill:#000072;" d="M2709.941,2214.795c-192.639,0-349.36-191.558-349.36-427.012s156.721-427.007,349.36-427.007
					s349.36,191.553,349.36,427.007S2902.581,2214.795,2709.941,2214.795z M2709.941,1405.776
					c-167.825,0-304.36,171.367-304.36,382.007s136.536,382.012,304.36,382.012s304.36-171.372,304.36-382.012
					S2877.766,1405.776,2709.941,1405.776z"/>
			</g>
			<g>
				<path style="fill:#000072;" d="M2780.347,2169.307c-152.185,0-275.999-170.42-275.999-379.897s123.813-379.897,275.999-379.897
					s275.999,170.42,275.999,379.897S2932.532,2169.307,2780.347,2169.307z M2780.347,1454.512
					c-127.373,0-230.999,150.234-230.999,334.897s103.625,334.897,230.999,334.897s230.999-150.234,230.999-334.897
					S2907.72,1454.512,2780.347,1454.512z"/>
			</g>
			<g>
				<path style="fill:#000072;" d="M2862.034,2062.837c-105.767,0-191.814-123.389-191.814-275.054
					c0-151.66,86.047-275.049,191.814-275.049c105.764,0,191.812,123.389,191.812,275.049
					C3053.845,1939.448,2967.798,2062.837,2862.034,2062.837z M2862.034,1552.734c-83.711,0-151.814,105.444-151.814,235.049
					c0,129.609,68.103,235.054,151.814,235.054c83.708,0,151.812-105.444,151.812-235.054
					C3013.845,1658.179,2945.742,1552.734,2862.034,1552.734z"/>
			</g>
			<g>
				<path style="fill:#000072;" d="M2533.892,1469.385c-6.555,0-13.052-2.847-17.498-8.34c-7.822-9.653-6.335-23.823,3.32-31.646
					c47.117-38.164,75.183-66.006,79.221-95.376c4.873-35.103-6.182-71.914-30.327-101.03
					c-155.056-187.012-385.298-290.786-648.313-292.207c-1.829-0.01-3.677-0.015-5.505-0.015
					c-300.867,0-607.29,132.603-781.997,338.76c-8.032,9.482-22.229,10.654-31.711,2.617c-9.48-8.032-10.654-22.231-2.62-31.709
					c182.903-215.83,502.81-354.668,816.365-354.668c1.907,0,3.806,0.005,5.713,0.02c276.555,1.489,519.011,111.045,682.71,308.481
					c32.19,38.818,46.865,88.354,40.261,135.908c-6.699,48.755-47.202,85.088-95.471,124.189
					C2543.872,1467.744,2538.865,1469.385,2533.892,1469.385z"/>
			</g>
			<g>
				<path style="fill:#000072;" d="M958.313,1947.671c5.625,14.912,17.239,30.059,30.747,43.394
					c13.623,13.379,29.387,25.527,46.343,35.425l0.164,0.098c3.596,2.1,4.812,6.719,2.71,10.317
					c-1.782,3.052-5.381,4.385-8.625,3.438c-20.381-5.938-39.917-14.375-58.699-25.361c-9.37-5.532-18.53-11.763-27.287-19.063
					c-8.735-7.314-17.124-15.703-24.424-25.923l-0.757-1.06c-7.307-10.229-4.936-24.448,5.295-31.758
					c10.232-7.305,24.451-4.937,31.758,5.293C956.687,1944.082,957.634,1945.903,958.313,1947.671z"/>
			</g>
			<g>
				<path style="fill:#000072;" d="M878.54,1745.703c3.323-37.3,11.353-75.137,28.311-110.142
					c16.668-34.902,42.102-66.807,74.739-89.209c32.441-22.559,70.876-35.972,109.761-39.097
					c19.448-1.655,39.026-0.972,58.247,1.929c19.209,2.998,38.047,8.223,56.069,15.542c36.077,14.502,68.774,38.032,93.77,68.374
					c25.273,30.22,41.384,67.422,49.197,105.552c3.84,19.106,5.686,38.618,4.705,57.861c-0.942,19.238-4.29,38.135-9.414,56.289
					c-1.326,4.526-2.649,9.053-4.165,13.491c-1.545,4.429-3.298,8.789-4.949,13.154c-3.54,8.638-7.188,17.207-11.624,25.352
					c-8.345,16.533-18.64,31.904-30.215,46.162c-2.671,3.291-7.502,3.794-10.793,1.123c-2.358-1.914-3.286-4.937-2.639-7.71
					l0.042-0.171c8.203-34.829,17.224-67.72,21.584-100.693c4.529-32.783,6.509-65.117,1.826-96.582
					c-4.585-31.475-18.223-61.021-38.291-85.225c-20.007-24.277-46.426-43.433-75.986-55.293
					c-58.823-24.438-130.093-19.326-181.404,16.865c-25.825,17.725-46.079,42.949-59.885,71.748
					c-14.021,28.818-21.079,61.323-24.033,94.326l-0.032,0.356c-1.106,12.373-12.039,21.509-24.414,20.4
					S877.432,1758.081,878.54,1745.703z"/>
			</g>
			<g>
				<path style="fill:#000072;" d="M1895.032,1953.833c-6.072,0-12.021-2.461-16.353-7.041
					c-117.893-124.673-375.432-175.171-540.33-105.962c-11.458,4.795-24.646-0.576-29.456-12.036s0.581-24.648,12.039-29.458
					c168.264-70.64,414.858-30.4,555.713,84.395c18.804-123.901,99.16-231.606,213.87-282.061
					c111.323-48.96,231.799-30.981,322.273,48.11c9.358,8.179,10.31,22.393,2.134,31.748s-22.393,10.313-31.748,2.129
					c-78.137-68.301-178.193-83.169-274.541-40.796c-113.115,49.756-188.13,163.193-191.113,289.004
					c-0.215,9.116-5.911,17.202-14.421,20.469C1900.474,1953.345,1897.739,1953.833,1895.032,1953.833z"/>
			</g>
			<g>
				<path style="fill:#000072;" d="M1917.446,1933.223c-0.527,3.223-1.006,7.651-1.355,11.641
					c-0.371,4.106-0.645,8.252-0.823,12.432c-0.422,8.345-0.454,16.753-0.288,25.171c0.427,16.841,2.112,33.677,5.044,50.313
					c2.754,16.709,7.566,32.93,13.467,48.789c5.857,15.952,14.253,30.698,23.599,45.024l0.278,0.43
					c2.263,3.467,1.284,8.11-2.183,10.376c-3.162,2.061-7.3,1.431-9.722-1.323c-12.109-13.75-23.511-28.55-32.305-44.873
					c-8.848-16.23-16.606-33.267-22.19-50.952c-5.769-17.637-10.215-35.728-13.306-54.087c-1.499-9.185-2.773-18.423-3.63-27.759
					c-0.459-4.663-0.815-9.36-1.062-14.097c-0.249-4.849-0.442-9.263-0.366-14.863l0.002-0.171
					c0.168-12.466,10.41-22.432,22.874-22.266c12.463,0.171,22.429,10.41,22.261,22.876
					C1917.727,1930.972,1917.612,1932.173,1917.446,1933.223z"/>
			</g>
			<g>
				<path style="fill:#000072;" d="M2455.698,2017.759c-0.332,2.046-0.642,3.213-0.957,4.619c-0.303,1.411-0.659,2.651-1.003,3.926
					c-0.669,2.578-1.411,5.068-2.219,7.476c-1.489,4.932-3.372,9.575-5.142,14.287c-3.875,9.224-8.062,18.223-12.976,26.758
					c-9.736,17.109-21.16,33.066-34.453,47.129c-3.132,3.667-6.833,6.826-10.212,10.239c-3.418,3.379-6.875,6.699-10.662,9.658
					l-11.045,9.121l-11.677,8.198l-5.828,4.053c-1.951,1.333-4.065,2.422-6.084,3.643l-12.217,7.09
					c-8.242,4.497-16.885,8.184-25.237,12.256c-3.796,1.851-8.376,0.269-10.229-3.525c-1.692-3.477-0.515-7.607,2.605-9.702
					l0.706-0.474c7.363-4.951,14.946-9.463,22.002-14.678l10.356-8.076c1.697-1.367,3.489-2.612,5.105-4.077l4.795-4.434
					l9.529-8.828l8.755-9.526c3.008-3.066,5.659-6.445,8.259-9.849c2.561-3.428,5.435-6.582,7.722-10.19
					c9.912-13.833,17.761-28.906,23.948-44.336c3.142-7.705,5.547-15.64,7.668-23.516c0.869-3.96,1.897-7.92,2.485-11.816
					c0.378-1.968,0.669-3.892,0.876-5.762c0.12-0.942,0.264-1.914,0.308-2.739c0.066-0.835,0.171-1.89,0.12-2.1
					c-3.103-12.554,4.558-25.249,17.114-28.354c12.554-3.101,25.247,4.561,28.352,17.114c0.774,3.13,0.876,6.27,0.405,9.263
					L2455.698,2017.759z"/>
			</g>
			<g>
				<path style="fill:#000072;" d="M2423.433,2282.275c3.899,17.202,6.689,34.536,10.981,51.523
					c3.647,17.119,8,33.975,12.388,50.767c9.463,33.32,20.229,66.069,34.658,96.064c7.71,14.556,15.293,29.209,24.722,41.523
					c9.026,12.598,19.282,23.691,30.686,31.255c11.455,7.529,24.009,11.084,37.207,10.479c13.196-0.581,27.031-5.269,40.22-12.676
					c13.218-7.402,25.779-17.334,37.488-28.496c11.614-11.357,22.327-23.999,32.375-37.275c9.939-13.398,19.014-27.578,27.5-42.158
					c2.09-3.662,4.084-7.397,6.064-11.128l2.971-5.601c0.986-1.865,1.458-3.164,2.239-4.761c2.676-6.182,4.192-12.769,5.176-19.39
					c1.57-13.247,1.003-27.148-3.613-40.303c-1.169-3.262-2.539-6.47-4.124-9.6c-0.767-1.577-1.724-3.042-2.566-4.595
					c-0.862-1.538-2.173-3.408-3.237-5.103c-4.558-6.914-9.48-13.691-14.675-20.322c-20.474-26.875-45.176-51.328-71.091-74.8
					l-0.037-0.034c-4.114-3.726-4.426-10.078-0.703-14.189c3.279-3.618,8.596-4.292,12.627-1.86
					c15.452,9.302,30.417,19.536,44.946,30.562c14.385,11.191,28.381,23.135,41.545,36.27c6.514,6.626,12.827,13.53,18.872,20.781
					c1.521,1.895,2.952,3.496,4.546,5.64c1.567,2.153,3.235,4.258,4.695,6.499c2.971,4.458,5.652,9.121,8.042,13.96
					c9.465,19.307,13.865,41.763,10.432,63.55c-1.492,10.889-4.902,21.47-9.443,31.431c-1.165,2.378-2.432,5.156-3.555,7.173
					l-3.367,6.055l-6.697,12.134c-9.304,16.001-19.316,31.655-30.464,46.68c-11.292,14.932-23.481,29.355-37.183,42.739
					c-13.879,13.232-29.187,25.532-46.838,35.439c-17.559,9.824-37.944,17.319-60.173,18.335
					c-5.496,0.576-11.099-0.059-16.687-0.483l-4.187-0.356c-1.387-0.19-2.749-0.552-4.126-0.825l-8.225-1.851
					c-2.786-0.518-5.374-1.533-7.976-2.534l-7.798-3.018c-5.125-2.134-9.707-5.068-14.553-7.646
					c-18.594-11.411-32.632-26.919-44.202-42.925c-2.727-4.102-5.566-8.179-8.123-12.334l-6.914-12.725
					c-2.393-4.229-4.338-8.545-6.189-12.91l-5.652-13.032c-3.14-8.804-6.514-17.549-9.331-26.372
					c-2.581-8.857-5.398-17.686-7.556-26.587c-2.053-8.911-4.324-17.783-6.167-26.689l-4.817-26.792
					c-5.642-35.742-8.711-71.528-9.988-107.261c-0.198-5.537,4.126-10.181,9.661-10.381c4.895-0.171,9.097,3.193,10.137,7.803
					L2423.433,2282.275z"/>
			</g>
			<g>
				<path style="fill:#000072;" d="M2494.9,2304.463c6.211,9.58,11.24,19.624,16.028,29.761
					c4.634,10.195,8.997,20.498,12.849,30.996c3.96,10.459,7.683,21.011,10.999,31.719c3.328,10.703,6.438,21.489,8.721,32.603
					c0.847,4.111-1.804,8.135-5.918,8.979c-3.252,0.669-6.448-0.854-8.064-3.55c-5.815-9.736-10.803-19.795-15.576-29.937
					c-4.785-10.137-9.16-20.435-13.301-30.82c-4.246-10.352-7.983-20.894-11.448-31.543c-3.313-10.713-6.382-21.514-8.271-32.778
					c-0.701-4.17,2.114-8.12,6.287-8.818C2490.308,2300.552,2493.289,2301.982,2494.9,2304.463z"/>
			</g>
			<g>
				<path style="fill:#000072;" d="M2542.393,2269.458c7.573,10.2,14.297,20.845,20.737,31.636
					c6.487,10.762,12.483,21.782,18.352,32.871l8.501,16.782c2.639,5.698,5.439,11.309,7.935,17.08
					c5.139,11.465,9.934,23.11,13.821,35.225c1.284,3.999-0.918,8.286-4.919,9.57c-3.157,1.011-6.497-0.161-8.394-2.661
					c-7.671-10.151-14.434-20.771-20.852-31.572c-3.284-5.361-6.26-10.884-9.399-16.318l-8.835-16.611
					c-5.691-11.182-11.25-22.427-16.321-33.926c-5.117-11.479-9.954-23.101-13.938-35.166c-1.316-3.984,0.847-8.281,4.832-9.595
					C2537.1,2265.718,2540.493,2266.904,2542.393,2269.458z"/>
			</g>
			<g>
				<path style="fill:#000072;" d="M2595.466,2257.993c6.943,6.641,13.123,13.804,19.072,21.128
					c5.962,7.31,11.567,14.868,16.97,22.563c5.422,7.686,10.449,15.64,15.205,23.779c4.729,8.159,9.119,16.553,12.637,25.547
					c1.548,3.96-0.408,8.428-4.368,9.976c-2.82,1.104-5.901,0.42-7.998-1.484c-7.129-6.509-13.386-13.623-19.304-20.967
					c-5.891-7.358-11.514-14.907-16.736-22.725c-5.244-7.808-10.286-15.752-14.973-23.94c-4.697-8.184-9.165-16.519-12.869-25.386
					c-1.633-3.901,0.21-8.389,4.114-10.02C2590.112,2255.254,2593.333,2255.957,2595.466,2257.993z"/>
			</g>
			<g>
				<path style="fill:#000072;" d="M949.312,2136.045c-4.304,0-8.655-1.23-12.5-3.804
					c-91.741-61.431-156.108-147.153-186.14-247.891c-26.382-88.501-25.454-187.71,2.617-279.351
					c23.904-78.042,65.032-145.42,118.936-194.849c57.637-52.852,125.691-80.767,196.875-80.767c0.403,0,0.801,0.005,1.204,0.005
					c12.427,0.054,22.454,10.171,22.4,22.598c-0.056,12.393-10.12,22.402-22.498,22.402c-0.342,0.015-0.708,0-1.052,0
					c-118.579,0-228.13,97.832-272.839,243.789c-42.893,140.034-25.276,348.901,165.537,476.67
					c10.325,6.914,13.091,20.889,6.177,31.216C963.687,2132.544,956.565,2136.045,949.312,2136.045z"/>
			</g>
			<g>
				<path style="fill:#000072;" d="M712.288,2393.711c-13.657,0-27.251-3.535-39.531-10.522
					c-21.575-12.271-36.216-33.403-40.171-57.979c-11.973-74.414-11.88-140.562,0.283-202.236
					c8.02-40.645,42.805-70.869,84.592-73.491l165.684-10.4c12.434-0.732,23.086,8.652,23.865,21.045
					c0.779,12.402-8.645,23.091-21.047,23.867l-165.684,10.4c-21.404,1.343-39.194,16.68-43.259,37.29
					c-11.113,56.353-11.116,117.314-0.005,186.377c1.777,11.035,8.335,20.518,17.991,26.011c9.409,5.352,20.083,6.123,30.068,2.173
					c85.608-33.882,163.601-80.19,231.812-137.642c9.507-8.013,23.696-6.797,31.704,2.71c8.005,9.507,6.789,23.701-2.715,31.704
					c-71.931,60.591-154.106,109.399-244.238,145.073C732.139,2391.846,722.195,2393.711,712.288,2393.711z"/>
			</g>
			<g>
				<path style="fill:#000072;" d="M921.233,2106.504l-146.067,48.76c-3.948,1.318-8.215-0.811-9.534-4.761
					c-1.16-3.472,0.354-7.192,3.42-8.936l133.84-76.157c10.852-6.177,24.656-2.383,30.83,8.467
					c6.177,10.85,2.385,24.653-8.467,30.83C923.989,2105.43,922.563,2106.05,921.233,2106.504z"/>
			</g>
			<g>
				<path style="fill:#000072;" d="M948.667,2117.139l-147.783,133.94c-3.079,2.788-7.834,2.554-10.625-0.522
					c-2.532-2.793-2.571-6.968-0.256-9.805l126.021-154.59c7.874-9.658,22.088-11.108,31.746-3.232
					c9.661,7.871,11.108,22.085,3.232,31.743C950.303,2115.532,949.458,2116.411,948.667,2117.139z"/>
			</g>
			<g>
				<path style="fill:#000072;" d="M2810.024,2801.333c-3.66,0-7.332-1.001-10.583-3.032l-160.476-100.098
					c-9.37-5.845-12.229-18.179-6.384-27.554c5.847-9.37,18.186-12.231,27.556-6.382l114.485,71.411l-45.195-143.003
					c-3.33-10.532,2.51-21.768,13.042-25.098c10.522-3.315,21.768,2.51,25.098,13.047l61.531,194.683
					c2.524,7.983-0.195,16.699-6.814,21.831C2818.691,2799.922,2814.365,2801.333,2810.024,2801.333z"/>
			</g>
			<g>
				<path style="fill:#000072;" d="M2317.524,3063.833c-5.967,0-11.643-3.062-14.88-8.296l-90.239-145.903
					c-5.085-8.218-2.542-19.004,5.679-24.087c8.225-5.078,19.004-2.534,24.087,5.679l62.815,101.558l12.063-128.296
					c0.908-9.614,9.453-16.689,19.063-15.781c9.622,0.903,16.689,9.438,15.786,19.063l-16.946,180.205
					c-0.706,7.485-6.113,13.682-13.433,15.4C2320.188,3063.682,2318.848,3063.833,2317.524,3063.833z"/>
			</g>
			<g>
				<path style="fill:#000072;" d="M1685.034,3125.083c-0.72,0-1.448-0.039-2.178-0.117c-8.521-0.933-15.5-7.188-17.356-15.552
					l-46.582-210.088c-2.39-10.786,4.414-21.465,15.198-23.857c10.774-2.368,21.465,4.409,23.855,15.195l33.813,152.505
					l59.438-127.695c4.661-10.02,16.553-14.365,26.572-9.692c10.015,4.658,14.353,16.558,9.692,26.567l-84.329,181.172
					C1699.851,3120.63,1692.742,3125.083,1685.034,3125.083z"/>
			</g>
			<g>
				<path style="fill:#000072;" d="M1153.777,2948.833c-4.158,0-8.318-1.294-11.843-3.882c-7.168-5.269-9.995-14.639-6.938-22.993
					l91.128-249.033c3.799-10.366,15.283-15.703,25.654-11.909c10.374,3.799,15.706,15.283,11.909,25.659l-67.49,184.434
					l153.352-117.573c8.76-6.714,21.318-5.063,28.04,3.706c6.721,8.765,5.063,21.318-3.704,28.042l-207.939,159.424
					C1162.361,2947.456,1158.069,2948.833,1153.777,2948.833z"/>
			</g>
			<g>
				<path style="fill:#000072;" d="M873.774,2550.083c-7.693,0-15.017-3.955-19.172-10.728c-5.125-8.35-4.26-19.053,2.136-26.465
					l143.42-166.299c8.118-9.414,22.322-10.459,31.733-2.349c9.409,8.12,10.459,22.324,2.344,31.733l-97.322,112.847l134.526-33.203
					c12.058-2.954,24.258,4.39,27.234,16.455c2.979,12.065-4.387,24.258-16.453,27.236l-203.054,50.117
					C877.373,2549.868,875.564,2550.083,873.774,2550.083z"/>
			</g>
			<g>
				<path style="fill:#000072;" d="M1082.964,1351.143c13.25-16.65,29.709-31.26,48.894-42.773
					c19.272-11.235,41.567-19.146,65.107-21.074c11.719-0.981,23.704-0.835,35.432,1.138c11.663,2.09,23.208,5.244,33.921,10.083
					c10.701,4.79,20.947,10.488,30.276,17.192c4.834,3.159,9.165,6.855,13.713,10.308c4.216,3.779,8.774,7.227,12.737,11.211
					c32.795,30.742,58.599,67.71,73.145,108.433l1.409,3.789l0.701,1.89l0.422,1.26c0.466,1.543,1.028,3.062,1.726,4.517
					c1.367,2.92,3.013,5.786,5.103,8.408c4.041,5.4,9.807,9.775,16.453,12.939c13.398,6.182,30.435,6.543,46.545-2.925l0.137-0.078
					c3.66-2.148,8.369-0.928,10.518,2.734c1.528,2.598,1.345,5.737-0.198,8.101c-6.328,9.663-16.45,17.783-28.232,22.412
					c-5.913,2.266-12.205,3.755-18.645,4.409c-6.445,0.566-13.005,0.225-19.482-0.918c-12.944-2.314-25.493-8.228-35.969-17.129
					c-5.178-4.507-9.888-9.702-13.74-15.518c-1.963-2.881-3.708-5.918-5.249-9.048l-3.499-7.09
					c-8.54-17.202-17.319-33.979-27.107-49.976c-9.731-16.021-21.216-30.801-34.622-43.12
					c-13.298-12.466-28.789-21.719-44.663-28.301c-15.95-6.484-32.375-10.664-49.631-11.802l-6.494-0.22l-6.533,0.254
					c-2.192,0.015-4.385,0.215-6.584,0.444c-2.192,0.264-4.436,0.283-6.626,0.723c-4.412,0.693-8.85,1.455-13.267,2.588
					c-4.502,0.815-8.843,2.373-13.335,3.594c-17.708,5.796-35.112,14.507-52.402,24.761l-0.117,0.068
					c-3.618,2.148-8.289,0.952-10.432-2.666C1080.718,1356.973,1081.064,1353.54,1082.964,1351.143z"/>
			</g>
			<g>
				<path style="fill:#000072;" d="M1311.929,1614.409c-62.119,0.005-133.564-48.955-161.765-114.648
					c-15.286-35.605-38.215-127.202,78.667-208.589l25.713,36.934c-64.092,44.624-86.477,99.282-63.03,153.906
					c23.022,53.623,87.742,95.508,133.127,86.167c38.215-7.856,46.238-50.981,46.238-85.781h45
					c0,101.958-57.468,124.78-82.175,129.858C1326.638,1613.711,1319.348,1614.409,1311.929,1614.409z"/>
			</g>
			<g>
				<path style="fill:#000072;" d="M1796.052,1495.732c3,6.88,6.384,13.354,10.488,18.916c4.119,5.552,8.86,10.142,13.96,13.525
					c10.293,6.733,22.195,8.35,34.678,6.88c12.5-1.675,25.339-6.27,37.515-12.681c12.07-6.528,25.056-12.266,36.755-20.601
					c0.532-0.376,1.13-0.762,1.685-1.089c38.738-22.861,76.843-48.169,115.803-72.905c19.509-12.373,39.275-24.575,59.475-36.445
					c20.176-11.899,40.75-23.589,62.603-33.75c21.846-10.083,45.127-18.657,70.51-22.72c12.546-2.368,25.933-2.607,39.268-1.968
					c3.374,0.352,6.77,0.864,10.134,1.318c3.367,0.425,6.721,0.923,10.078,1.934c3.354,0.859,6.687,1.772,9.985,2.739
					c3.267,1.152,6.46,2.642,9.656,3.979l4.761,2.08c1.572,0.718,3.015,1.724,4.519,2.583l8.845,5.405
					c2.81,1.963,5.366,4.248,8.022,6.377c2.585,2.207,5.3,4.287,7.427,6.865c4.453,4.971,9.163,9.717,12.588,15.205l5.493,7.969
					c1.653,2.729,2.996,5.586,4.487,8.364c11.694,22.329,17.698,45.854,21.228,69.155c0.623,4.121-2.212,7.969-6.333,8.594
					c-3.459,0.522-6.726-1.392-8.054-4.453l-0.09-0.215c-8.997-20.752-18.914-40.757-31.604-57.358
					c-12.722-16.484-27.979-29.268-45.498-34.063c-2.205-0.576-4.316-1.328-6.531-1.821c-2.297-0.283-4.558-0.62-6.802-1.016
					c-2.197-0.508-4.548-0.581-6.902-0.62l-6.995-0.264c-9.578,0.552-19.211,1.655-29.119,4.131
					c-19.695,4.668-39.722,12.188-59.668,20.884c-19.963,8.726-39.827,18.828-59.377,29.849
					c-19.519,11.089-38.752,23.062-57.988,35.254c-38.499,24.429-76.841,49.927-117.134,73.711l1.682-1.089
					c-14.072,9.932-28.596,20.146-45.74,25.718c-17.019,5.503-35.288,9.194-54.475,7.847c-9.546-0.679-19.324-2.715-28.503-6.655
					c-9.155-3.901-17.749-9.575-24.353-16.816c-6.714-7.124-11.565-15.396-14.846-23.784c-3.32-8.394-5.254-16.914-6.184-25.332
					c-0.459-4.155,2.534-7.896,6.689-8.354c3.372-0.371,6.472,1.533,7.764,4.487L1796.052,1495.732z"/>
			</g>
			<g>
				<path style="fill:#000072;" d="M1944.958,1772.363c-29.246,0.005-55.442-16.748-72.864-46.992
					c-28.323-49.165-32.527-137.749,10.066-195.127c7.407-9.98,21.501-12.065,31.477-4.653c9.978,7.407,12.063,21.499,4.656,31.479
					c-30.723,41.387-28.53,108.823-7.205,145.84c10.229,17.759,22.883,25.952,37.651,24.233
					c12.349-1.421,23.489,7.476,24.893,19.819c1.401,12.349-7.471,23.496-19.819,24.897
					C1950.837,1772.197,1947.881,1772.363,1944.958,1772.363z"/>
			</g>
			<g>
				<path style="fill:#000072;" d="M2251.27,1621.553c-8.171,0-16.055-4.468-20.039-12.236c-5.671-11.055-1.306-24.619,9.751-30.288
					c41.111-21.089,53.469-82.93,44.229-130.41c-5.938-30.508-23.096-64.077-53.442-66.797c-12.378-1.113-21.511-12.046-20.4-24.424
					c1.111-12.373,12.043-21.431,24.419-20.4c46.169,4.146,82.031,43.618,93.594,103.027c12.686,65.166-6.55,147.593-67.861,179.043
					C2258.232,1620.752,2254.724,1621.553,2251.27,1621.553z"/>
			</g>
			<g style="opacity:0.25;">
				<path style="fill:#000072;" d="M1485.547,1004.781c10.73,117.802,372.634,112.483,312.662-80.105"/>
			</g>
			<g style="opacity:0.25;">
				
					<ellipse transform="matrix(0.9813 -0.1925 0.1925 0.9813 -200.2536 342.2545)" style="fill:#000072;" cx="1661.266" cy="1201.72" rx="69.501" ry="42.5"/>
			</g>
			<g style="opacity:0.25;">
				<ellipse style="fill:#000072;" cx="1992.943" cy="1055.798" rx="112.5" ry="51.785"/>
			</g>
			<g style="opacity:0.25;">
				<ellipse style="fill:#000072;" cx="2065.443" cy="1182.578" rx="60" ry="37.5"/>
			</g>
			<g style="opacity:0.25;">
				<ellipse style="fill:#000072;" cx="2253.137" cy="1083.35" rx="57.5" ry="44.226"/>
			</g>
			<g style="opacity:0.25;">
				<ellipse style="fill:#000072;" cx="2387.11" cy="1131.333" rx="28.333" ry="23.75"/>
			</g>
			<g style="opacity:0.3;">
				<path style="fill:#000072;" d="M1095,1528.8c119.724,37.901,213.274,328.284-7.057,486.372c0,0,226.286-34.262,234.172-204.717
					C1330,1640,1268.333,1530.933,1095,1528.8z"/>
			</g>
			<g style="opacity:0.3;">
				<path style="fill:#000072;" d="M1322.778,1596.843c0,0,122.222,41.477,107.222,184.817l-86.677,33.024
					c0,0-8.323-185.451-55.823-205.484"/>
			</g>
			<g style="opacity:0.3;">
				<path style="fill:#000072;" d="M2158.333,1596.843c200.444-4.901,257.11,582.517-165.39,549.965
					c0,0,339.805,213.193,519.264-28.474c-130.036-78.883-172.208-231.141-123.431-459.352
					C2388.777,1658.981,2330,1597.019,2158.333,1596.843z"/>
			</g>
			<g>
				<g style="opacity:0.3;">
					<path style="fill:#000072;" d="M1129.628,2517.454c402.316,508.877,1305.054,520.007,1730.522-137.854
						c80-123.65,131.45-260.801,153.75-401.75l-3.165-36.794c-97.336,194.055-217.524,292.944-373.792,241.418l2.606,7.178
						c17.07,29.617,25.209,58.625,26.57,85.972c-0.001-0.002-0.002-0.005-0.004-0.007
						c55.194,157.72-128.539,284.604-206.765,208.936L2421.1,2339.7c-114.275,403.604-963.142,385.579-1291.481,177.747
						C1129.622,2517.449,1129.624,2517.451,1129.628,2517.454z"/>
				</g>
			</g>
			<g>
				<path style="fill:#FFFFFF;" d="M2501.55,950.25l0.05,0.1c-0.05-0.05-0.1-0.05-0.1-0.05L2501.55,950.25z"/>
			</g>
		</g>
		<g style="opacity:0.2;">
			<ellipse style="fill:#000072;" cx="2035" cy="3522.5" rx="840.858" ry="117.5"/>
		</g>
	</g>
</g>
</svg>
